<?xml version="1.0" encoding="UTF-8" standalone="no"?>
<!-- Created with Inkscape (http://www.inkscape.org/) -->

<svg
   xmlns:dc="http://purl.org/dc/elements/1.1/"
   xmlns:cc="http://creativecommons.org/ns#"
   xmlns:rdf="http://www.w3.org/1999/02/22-rdf-syntax-ns#"
   xmlns:svg="http://www.w3.org/2000/svg"
   xmlns="http://www.w3.org/2000/svg"
   xmlns:sodipodi="http://sodipodi.sourceforge.net/DTD/sodipodi-0.dtd"
   xmlns:inkscape="http://www.inkscape.org/namespaces/inkscape"
   width="744.09448819"
   height="1052.3622047"
   id="svg2"
   version="1.1"
   inkscape:version="0.48.2 r9819"
   sodipodi:docname="logo.svg">
  <defs
     id="defs4" />
  <sodipodi:namedview
     id="base"
     pagecolor="#ffffff"
     bordercolor="#666666"
     borderopacity="1.0"
     inkscape:pageopacity="0.0"
     inkscape:pageshadow="2"
     inkscape:zoom="0.98994949"
     inkscape:cx="7.176727"
     inkscape:cy="341.17326"
     inkscape:document-units="px"
     inkscape:current-layer="layer1"
     showgrid="true"
     inkscape:window-width="1511"
     inkscape:window-height="918"
     inkscape:window-x="1934"
     inkscape:window-y="47"
     inkscape:window-maximized="0">
    <inkscape:grid
       type="xygrid"
       id="grid3796" />
  </sodipodi:namedview>
  <metadata
     id="metadata7">
    <rdf:RDF>
      <cc:Work
         rdf:about="">
        <dc:format>image/svg+xml</dc:format>
        <dc:type
           rdf:resource="http://purl.org/dc/dcmitype/StillImage" />
        <dc:title></dc:title>
      </cc:Work>
    </rdf:RDF>
  </metadata>
  <g
     inkscape:label="Layer 1"
     inkscape:groupmode="layer"
     id="layer1">
    <path
       id="path2998"
       d="m 372.04724,469.01939 -5.13313,2.69287 -94.55777,43.98342 -8.37511,3.88969 v 9.27542 c 0,49.66834 18.10105,93.35255 39.71426,125.36769 10.8066,15.85797 22.42369,29.02308 33.77063,38.29849 11.34693,9.27542 22.42369,15.85797 34.58112,15.85797 12.4276,0 23.23419,-6.58255 34.58113,-15.85797 11.34692,-9.27541 22.96402,-22.44052 33.77062,-38.29849 21.61322,-32.01514 39.71427,-75.69935 39.71427,-125.36769 v -9.27542 l -8.37512,-3.88969 -94.55776,-43.98342 -5.13314,-2.69287 z m 0,32.61356 v 176.8313 c -1.08066,0 -8.91544,-2.09445 -17.8309,-9.27542 -8.91544,-7.18097 -19.18171,-18.85004 -28.63748,-32.61356 -17.29057,-25.43258 -30.79882,-60.73901 -32.96014,-98.13986 l 79.42852,-36.50326 z"
       inkscape:connector-curvature="0"
       style="fill:#000099;fill-opacity:1"
       inkscape:export-filename="C:\Users\tho\Desktop\bitmap.png"
       inkscape:export-xdpi="17.447893"
       inkscape:export-ydpi="17.447893" />
  </g>
  <g
     inkscape:groupmode="layer"
     id="layer2"
     inkscape:label="Layer">
    <path
       id="path3010"
       d="m 372.85059,531.1387 c -67.74973,0 -107.91755,43.9264 -107.91755,43.9264 0,0 40.16782,43.92641 107.91755,43.92641 66.14303,0 106.31086,-43.92641 106.31086,-43.92641 0,0 -40.16783,-43.9264 -106.31086,-43.9264 z m -0.80335,14.64213 c 29.72419,0 53.5571,13.17793 53.5571,29.28427 0,16.25277 -23.83291,29.28428 -53.5571,29.28428 -29.4564,0 -53.5571,-13.03151 -53.5571,-29.28428 0,-16.10634 24.1007,-29.28427 53.5571,-29.28427 z m 0,14.64214 c -14.7282,0 -26.77855,6.58896 -26.77855,14.64213 0,8.05318 12.05035,14.64214 26.77855,14.64214 14.72821,0 26.77856,-6.58896 26.77856,-14.64214 0,-1.46421 -1.07115,-2.782 -1.60672,-4.09979 -2.14228,2.34274 -6.42685,4.09979 -11.78256,4.09979 -7.498,0 -13.38928,-3.22127 -13.38928,-7.32106 0,-2.92843 3.21342,-5.27117 7.498,-6.44254 -2.41007,-0.43927 -4.82014,-0.87853 -7.498,-0.87853 z"
       inkscape:connector-curvature="0"
       style="fill:#ffcc00;fill-opacity:1"
       inkscape:export-filename="C:\Users\tho\Desktop\bitmap.png"
       inkscape:export-xdpi="17.447893"
       inkscape:export-ydpi="17.447893" />
  </g>
  <g
     inkscape:groupmode="layer"
     id="layer3"
     inkscape:label="Text">
    <flowRoot
       xml:space="preserve"
       id="flowRoot3788"
       style="font-size:48px;font-style:normal;font-variant:normal;font-weight:bold;font-stretch:normal;text-align:start;line-height:125%;letter-spacing:0px;word-spacing:0px;writing-mode:lr-tb;text-anchor:start;fill:#030303;fill-opacity:1;stroke:none;font-family:Agency FB;-inkscape-font-specification:Agency FB Bold"
       transform="matrix(1.9651524,0,0,1.8611035,-70.142754,-970.35334)"
       inkscape:export-filename="C:\Users\tho\Desktop\bitmap.png"
       inkscape:export-xdpi="17.447893"
       inkscape:export-ydpi="17.447893"><flowRegion
         id="flowRegion3790"><rect
           id="rect3792"
           width="472.7514"
           height="70.710678"
           x="149.50258"
           y="894.77838"
           style="font-size:48px;font-style:normal;font-variant:normal;font-weight:bold;font-stretch:normal;text-align:start;line-height:125%;writing-mode:lr-tb;text-anchor:start;fill:#030303;fill-opacity:1;font-family:Agency FB;-inkscape-font-specification:Agency FB Bold" /></flowRegion><flowPara
         id="flowPara3013">FraudNet</flowPara></flowRoot>  </g>
</svg>
